mtllib medicinal_herb.mtl
v 0.0600 0.0000 0.0000
v 0.0300 0.0000 0.0520
v -0.0300 0.0000 0.0520
v -0.0600 0.0000 0.0000
v -0.0300 0.0000 -0.0520
v 0.0300 0.0000 -0.0520
v 0.0600 0.8000 0.0000
v 0.0300 0.8000 0.0520
v -0.0300 0.8000 0.0520
v -0.0600 0.8000 0.0000
v -0.0300 0.8000 -0.0520
v 0.0300 0.8000 -0.0520
v 0.0400 0.8000 0.0000
v 0.0200 0.8000 0.0346
v -0.0200 0.8000 0.0346
v -0.0400 0.8000 0.0000
v -0.0200 0.8000 -0.0346
v 0.0200 0.8000 -0.0346
v 0.0400 1.3000 0.0000
v 0.0200 1.3000 0.0346
v -0.0200 1.3000 0.0346
v -0.0400 1.3000 0.0000
v -0.0200 1.3000 -0.0346
v 0.0200 1.3000 -0.0346
v 0.0500 0.3000 0.0000
v 0.4500 0.4500 0.2200
v 0.4500 0.4500 -0.2200
v 0.7500 0.2500 0.0000
v 0.0250 0.5500 0.0433
v 0.0345 0.7000 0.4997
v 0.4155 0.7000 0.2797
v 0.3750 0.5000 0.6495
v -0.0250 0.3000 0.0433
v -0.4155 0.4500 0.2797
v -0.0345 0.4500 0.4997
v -0.3750 0.2500 0.6495
v -0.0500 0.5500 0.0000
v -0.4500 0.7000 -0.2200
v -0.4500 0.7000 0.2200
v -0.7500 0.5000 0.0000
v -0.0250 0.3000 -0.0433
v -0.0345 0.4500 -0.4997
v -0.4155 0.4500 -0.2797
v -0.3750 0.2500 -0.6495
v 0.0250 0.5500 -0.0433
v 0.4155 0.7000 -0.2797
v 0.0345 0.7000 -0.4997
v 0.3750 0.5000 -0.6495
v 0.0000 1.3500 0.0000
v 0.3500 1.5000 0.0000
v 0.1214 1.3800 0.0882
v 0.1082 1.5000 0.3329
v -0.0464 1.3800 0.1427
v -0.2832 1.5000 0.2057
v -0.1500 1.3800 0.0000
v -0.2832 1.5000 -0.2057
v -0.0464 1.3800 -0.1427
v 0.1082 1.5000 -0.3329
v 0.1214 1.3800 -0.0882
usemtl Herb_Stem
f 1 2 8
f 1 8 7
f 2 3 9
f 2 9 8
f 3 4 10
f 3 10 9
f 4 5 11
f 4 11 10
f 5 6 12
f 5 12 11
f 6 1 7
f 6 7 12
f 13 14 20
f 13 20 19
f 14 15 21
f 14 21 20
f 15 16 22
f 15 22 21
f 16 17 23
f 16 23 22
f 17 18 24
f 17 24 23
f 18 13 19
f 18 19 24
usemtl Herb_Leaf
f 25 26 27
f 26 28 27
f 29 30 31
f 30 32 31
f 33 34 35
f 34 36 35
f 37 38 39
f 38 40 39
f 41 42 43
f 42 44 43
f 45 46 47
f 46 48 47
usemtl Herb_Flower
f 49 50 51
f 49 52 53
f 49 54 55
f 49 56 57
f 49 58 59
